Coordinates
version=1
nRows=16
nColumns=22
inDegrees=yes

Units are S.I. units (second, meters, Newtons, ...)
If the header above contains a line with 'inDegrees', this indicates whether rotational values are in degrees (yes) or radians (no).

endheader
time	pelvis_tilt	pelvis_list	pelvis_rotation	pelvis_tx	pelvis_ty	pelvis_tz	hip_flexion_r	hip_adduction_r	hip_rotation_r	knee_angle_r	ankle_angle_r	subtalar_angle_r	hip_flexion_l	hip_adduction_l	hip_rotation_l	knee_angle_l	ankle_angle_l	subtalar_angle_l	lumbar_extension	lumbar_bending	lumbar_rotation
      0.75000000	     -2.88271829	      2.02646420	    -27.98496276	     -0.88130261	      0.89510950	     -0.40894707	     -1.84303011	     -0.46287119	    -13.79003966	     -7.21630481	     22.18207717	     -4.74342555	      2.86604898	     -0.46249951	     -6.55600986	    -16.55096407	     21.51531775	     -5.12593126	     -6.48415557	     -2.77303483	      3.99075705
      0.76000000	     -3.16076318	      2.18610663	    -27.90750781	     -0.87845059	      0.89436306	     -0.40944785	     -1.44520564	     -0.60496074	    -13.75931852	     -7.62244299	     22.38753177	     -5.01421265	      2.97360812	     -0.28196100	     -6.36845359	    -16.40149742	     21.64690878	     -5.51706340	     -6.20007892	     -2.77807406	      4.14335415
      0.77000000	     -3.44250401	      2.37518785	    -27.83693510	     -0.87547765	      0.89357304	     -0.40994596	     -1.02318186	     -0.77971413	    -13.68897063	     -8.04951399	     22.59708144	     -5.28687525	      3.07317619	     -0.06545421	     -6.17143179	    -16.21949922	     21.83590266	     -5.90042285	     -5.89235842	     -2.81190784	      4.29337319
      0.78000000	     -3.75202259	      2.57832746	    -27.78476998	     -0.87243661	      0.89272289	     -0.41043044	     -0.52087833	     -0.96640383	    -13.61592109	     -8.56799523	     22.85906143	     -5.48307744	      3.19281196	      0.15322347	     -5.98406266	    -16.02678599	     21.94838902	     -6.19516143	     -5.55099302	     -2.84955028	      4.50767426
      0.79000000	     -4.09967300	      2.80531333	    -27.74538694	     -0.86935493	      0.89179643	     -0.41091786	      0.07330929	     -1.16553304	    -13.49290752	     -9.16640220	     23.10996234	     -5.70077115	      3.35574549	      0.37712106	     -5.79416113	    -15.83417806	     22.09462646	     -6.51507282	     -5.16614483	     -2.89607261	      4.74602531
      0.80000000	     -4.48394185	      3.04598496	    -27.72616575	     -0.86625946	      0.89080993	     -0.41139668	      0.76587689	     -1.36699127	    -13.31308981	     -9.86326788	     23.32968214	     -5.97562906	      3.55775068	      0.59260612	     -5.61739896	    -15.64432641	     22.27072044	     -6.86274188	     -4.74895062	     -2.94271652	      5.01492748
      0.81000000	     -4.87753239	      3.30284583	    -27.74937832	     -0.86320397	      0.88979784	     -0.41188903	      1.56852382	     -1.59330027	    -13.06166994	    -10.71267471	     23.55928043	     -6.29574144	      3.77880677	      0.81502787	     -5.47822922	    -15.46356411	     22.43790921	     -7.16593018	     -4.34365696	     -3.00148415	      5.34792201
      0.82000000	     -5.25173694	      3.56224467	    -27.83883056	     -0.86022199	      0.88881311	     -0.41232803	      2.47542041	     -1.84220462	    -12.71472939	    -11.76326701	     23.80900271	     -6.58016734	      3.97985941	      1.03487216	     -5.43555969	    -15.28466600	     22.51526857	     -7.35417245	     -3.98915092	     -3.07874129	      5.75229152
      0.83000000	     -5.62162666	      3.83052059	    -27.98305006	     -0.85734602	      0.88782872	     -0.41270802	      3.51708805	     -2.10311656	    -12.23871558	    -13.03765162	     24.02552105	     -6.97250089	      4.18505113	      1.24856394	     -5.46424500	    -15.11486634	     22.61880718	     -7.50902127	     -3.67028005	     -3.17795848	      6.19155234
      0.84000000	     -6.01033816	      4.10541938	    -28.17493561	     -0.85461270	      0.88681803	     -0.41305365	      4.73003469	     -2.35187963	    -11.61075017	    -14.55655961	     24.17967595	     -7.74266836	      4.42389190	      1.44099989	     -5.56520097	    -14.96171093	     22.79127532	     -7.65352468	     -3.37324104	     -3.27410187	      6.63926407
      0.85000000	     -6.33952475	      4.38037236	    -28.46402184	     -0.85204210	      0.88587481	     -0.41326724	      6.07592949	     -2.61182343	    -10.79600405	    -16.38715498	     24.35930277	     -8.53385442	      4.59582228	      1.64049025	     -5.79374877	    -14.79179627	     22.86868185	     -7.69122271	     -3.18604976	     -3.41085476	      7.16233770
      0.86000000	     -6.63603328	      4.66955578	    -28.82955023	     -0.84967555	      0.88494410	     -0.41336661	      7.59828251	     -2.85928730	     -9.75831456	    -18.54464325	     24.48919156	     -9.47830282	      4.75816168	      1.84602745	     -6.12270465	    -14.64120012	     22.93680307	     -7.67865057	     -3.07961060	     -3.59001971	      7.71006674
      0.87000000	     -6.90524682	      4.97805897	    -29.26499391	     -0.84751486	      0.88399688	     -0.41333899	      9.30783381	     -3.06856133	     -8.47581876	    -21.03189040	     24.54561331	    -10.52609655	      4.92312417	      2.05992872	     -6.54722791	    -14.51643063	     23.01243563	     -7.63105462	     -3.04426864	     -3.81504786	      8.26148269
      0.88000000	     -7.13321364	      5.29823454	    -29.75597363	     -0.84547644	      0.88302977	     -0.41314690	     11.17325849	     -3.21927732	     -7.01144516	    -23.83249093	     24.60321429	    -11.81819853	      5.04300922	      2.28884413	     -7.03008135	    -14.36661164	     23.07492874	     -7.54922735	     -3.08265748	     -4.08881977	      8.82797248
      0.89000000	     -7.28664564	      5.62498072	    -30.27555850	     -0.84351991	      0.88208333	     -0.41279867	     13.13048598	     -3.29984606	     -5.37432828	    -26.89674765	     24.57587873	    -13.26784184	      5.10009236	      2.54480469	     -7.58748031	    -14.21980292	     23.10002164	     -7.43797946	     -3.23075314	     -4.42741542	      9.33655868
      0.90000000	     -7.41285049	      5.94127260	    -30.79184473	     -0.84158752	      0.88109886	     -0.41231141	     15.17220096	     -3.25548031	     -3.62549117	    -30.15194923	     24.44678780	    -14.61730023	      5.12581999	      2.79528609	     -8.14970903	    -14.07194325	     23.17213935	     -7.29266194	     -3.43621513	     -4.78309182	      9.78353319
